{
	"asset":{
		"version":"2.0",
		"generator":"Houdini GLTF 2.0 Exporter"
	},
	"accessors":[
		{
			"bufferView":0,
			"componentType":5123,
			"count":3408,
			"type":"SCALAR",
			"min":[0
			],
			"max":[3407
			]
		},
		{
			"bufferView":1,
			"componentType":5126,
			"count":3408,
			"type":"VEC3",
			"min":[-0.239663839,0.202340171,-0.248737499
			],
			"max":[0.239663839,0.699815214,0.248737499
			]
		},
		{
			"bufferView":2,
			"componentType":5126,
			"count":3408,
			"type":"SCALAR",
			"min":[-0.0926323757
			],
			"max":[0.008999818
			]
		},
		{
			"bufferView":3,
			"componentType":5126,
			"count":3408,
			"type":"VEC2",
			"min":[0.00215400942,0.00215405226
			],
			"max":[0.997846007,0.997845888
			]
		},
		{
			"bufferView":4,
			"componentType":5126,
			"count":3408,
			"type":"VEC3",
			"min":[-1,-1,-1
			],
			"max":[1,1,1
			]
		},
		{
			"bufferView":5,
			"componentType":5126,
			"count":3408,
			"type":"VEC2",
			"min":[-0.0926323757,0.991000175
			],
			"max":[0.008999818,1.09263241
			]
		},
		{
			"bufferView":6,
			"componentType":5125,
			"count":3408,
			"type":"SCALAR",
			"min":[0
			],
			"max":[0
			]
		},
		{
			"bufferView":7,
			"componentType":5126,
			"count":3408,
			"type":"SCALAR",
			"min":[0.728488922
			],
			"max":[0.728488922
			]
		},
		{
			"bufferView":8,
			"componentType":5123,
			"count":29256,
			"type":"SCALAR",
			"min":[0
			],
			"max":[29255
			]
		},
		{
			"bufferView":9,
			"componentType":5126,
			"count":29256,
			"type":"VEC3",
			"min":[-0.233363792,0,-0.26993826
			],
			"max":[0.233363748,0.720845699,0.269938231
			]
		},
		{
			"bufferView":10,
			"componentType":5126,
			"count":29256,
			"type":"SCALAR",
			"min":[-0.200001523
			],
			"max":[0.333336234
			]
		},
		{
			"bufferView":11,
			"componentType":5126,
			"count":29256,
			"type":"VEC2",
			"min":[-1,0.0553326011
			],
			"max":[1,1
			]
		},
		{
			"bufferView":12,
			"componentType":5126,
			"count":29256,
			"type":"VEC3",
			"min":[-1,-1,-1
			],
			"max":[1,1,1
			]
		},
		{
			"bufferView":13,
			"componentType":5126,
			"count":29256,
			"type":"VEC2",
			"min":[-0.200001523,0.666663766
			],
			"max":[0.333336234,1.20000148
			]
		},
		{
			"bufferView":14,
			"componentType":5125,
			"count":29256,
			"type":"SCALAR",
			"min":[0
			],
			"max":[0
			]
		},
		{
			"bufferView":15,
			"componentType":5126,
			"count":29256,
			"type":"SCALAR",
			"min":[0.728488922
			],
			"max":[0.728488922
			]
		}
	],
	"buffers":[
		{
			"uri":"test_scene_1_data.bin",
			"byteLength":1763856,
			"name":"main_buffer"
		}
	],
	"bufferViews":[
		{
			"buffer":0,
			"byteLength":6816,
			"target":34963
		},
		{
			"buffer":0,
			"byteOffset":6816,
			"byteLength":40896,
			"target":34962
		},
		{
			"buffer":0,
			"byteOffset":47712,
			"byteLength":13632,
			"target":34962
		},
		{
			"buffer":0,
			"byteOffset":61344,
			"byteLength":27264,
			"target":34962
		},
		{
			"buffer":0,
			"byteOffset":88608,
			"byteLength":40896,
			"target":34962
		},
		{
			"buffer":0,
			"byteOffset":129504,
			"byteLength":27264,
			"target":34962
		},
		{
			"buffer":0,
			"byteOffset":156768,
			"byteLength":13632,
			"target":34962
		},
		{
			"buffer":0,
			"byteOffset":170400,
			"byteLength":13632,
			"target":34962
		},
		{
			"buffer":0,
			"byteOffset":184032,
			"byteLength":58512,
			"target":34963
		},
		{
			"buffer":0,
			"byteOffset":242544,
			"byteLength":351072,
			"target":34962
		},
		{
			"buffer":0,
			"byteOffset":593616,
			"byteLength":117024,
			"target":34962
		},
		{
			"buffer":0,
			"byteOffset":710640,
			"byteLength":234048,
			"target":34962
		},
		{
			"buffer":0,
			"byteOffset":944688,
			"byteLength":351072,
			"target":34962
		},
		{
			"buffer":0,
			"byteOffset":1295760,
			"byteLength":234048,
			"target":34962
		},
		{
			"buffer":0,
			"byteOffset":1529808,
			"byteLength":117024,
			"target":34962
		},
		{
			"buffer":0,
			"byteOffset":1646832,
			"byteLength":117024,
			"target":34962
		}
	],
	"nodes":[
		{
			"name":"testgeometry_shaderball1",
			"mesh":0
		}
	],
	"meshes":[
		{
			"primitives":[
				{
					"attributes":{
						"_coverage":7,
						"_numnonpacked":6,
						"NORMAL":4,
						"TEXCOORD_0":3,
						"_distortion":2,
						"POSITION":1
					},
					"indices":0,
					"material":0
				},
				{
					"attributes":{
						"_coverage":15,
						"_numnonpacked":14,
						"NORMAL":12,
						"TEXCOORD_0":11,
						"_distortion":10,
						"POSITION":9
					},
					"indices":8
				}
			]
		}
	],
	"materials":[
		{
			"name":"core",
			"pbrMetallicRoughness":{
				"metallicFactor":0,
				"roughnessFactor":0.300000012,
				"baseColorTexture":{
					"index":0
				}
			}
		}
	],
	"scenes":[
		{
			"nodes":[0
			]
		}
	],
	"textures":[
		{
			"source":0
		}
	],
	"images":[
		{
			"uri":"testgeometry_shaderball_core_texture_base_v012.png",
			"mimeType":"image/png"
		}
	],
	"scene":0
}
